{"title":"Animals United (2010) PAL HQ Ac3 DD5.1 (ENG NL SUBS) TBS","uid":6346820,"size":1565741458,"categoryP":"video","categoryS":"movies","magnet":"?xt=urn:btih:33db9fe95c688ea4ffe7cfee9be4321c8e8e521c&amp;dn=Animals+United+%282010%29+PAL+HQ+Ac3+DD5.1+%28ENG+NL+SUBS%29+TBS&amp;tr=udp%3A%2F%2Ftracker.openbittorrent.com%3A80&amp;tr=udp%3A%2F%2Fopen.demonii.com%3A1337&amp;tr=udp%3A%2F%2Ftracker.coppersurfer.tk%3A6969&amp;tr=udp%3A%2F%2Fexodus.desync.com%3A6969","seeders":1,"leechers":0,"uploader":"Vlinder2","files":-1,"time":1303862042,"description":"Animals United (2010) PAL HQ Ac3 DD5.1 (Externe Subs) \n\nKonferenz der Tiere, Die (2010) \n\n###################################\n\n\n\nDuitsland\nAnimatie / Familie\n92 minuten\n\ngeregisseerd door Reinhard Klooss en Holger Tappe\nmet de stemmen van Oliver Kalkofe, Christoph Maria Herbst en Bastian Pastewka\n\nDe dieren in de Afrikaanse savanne vragen zich al een tijdje af waar het water gebleven is. Het had al lang moeten komen, door een kloof vanuit de verre bergen. De dorst wordt steeds groter, de zorgen ook, gezien het feit dat de laatste plas water verdedigd wordt door felle buffels en kwade neushoorns. Het dappere kleine stokstaartje Billy en de vredelievende leeuw Socrates, trekken erop uit om water te zoeken. Daarbij ontmoeten ze ook de Gallische haan Charles, die een ijsbeer, een kangoeroe, een Tasmaanse Duivel en twee Galapagos schildpadden, allen naar Afrika leidde. Ze moesten vanuit hun geboorteplaatsen vluchten naar Afrika en hopen om in de Okavango-Delta een beter leven te leiden. Maar helaas hebben de mensen zelfs dit laatste stukje paradijs niet gespaard. De hotelier Smith heeft beslist om een enorme dam te bouwen en het opgespaarde water te gebruiken voor zijn luxehotel...\n\n\nEnglish\nA group of animals waiting for the annual flood they rely on for food and water discover that the humans, who have been destroying their habitats have built a dam for a leisure resort. The animals endeavor to save the delta and send a message to the humans not to interfere with nature.\n\n\n\n\n\nSOURCE..........: Animals United PAL DVDR-SCREAM\nSIZE............: 1.45GB\nFORM............: AVI\nVIDEO CODEC.....: XVID \nBITRATE.........: 1888 Kbit/s\nWIDTH &amp; HEIGHT..: 720 X 320\nFRAMES/S........: 25.000 Fps\nAUDIO...........: English\nAUDIO CODE......: AC3\nBITRATE.........: 448kbps\nCHANNELS........: 5\nSAMPLING........: 48.0 kHz\nSubtitles.......: Dutch/English srt\n\n\n\n\n\nTrailer for Animals United (2011)\n\n\nCovers and labels:\n\n\n  Category : Video \n  Format : DVD5 \n  Source : Retail \n  Genre : Animation Family  \n  Language : English audio  \n \n  Weblink : &lt;a href=&quot; http://www.moviemeter.nl/film/66994&quot; rel=&quot;nofollow&quot; target=&quot;_NEW&quot;&gt; http://www.moviemeter.nl/film/66994&lt;/a&gt; \n  Weblink : &lt;a href=&quot; http://www.imdb.com/title/tt1620449&quot; rel=&quot;nofollow&quot; target=&quot;_NEW&quot;&gt; http://www.imdb.com/title/tt1620449&lt;/a&gt;\n\nTBS\n\nMEIDA INFO\n\nGeneral\nComplete name                    : Animals United (2010) PAL HQ Ac3 DD5.1 (Externe Subs) TBS\\MOVIE\\Animals_United_(2010).avi\nFormat                           : DivX\nFormat/Info                      : Hack of AVI\nFile size                        : 1.46 GiB\nDuration                         : 1h 29mn\nOverall bit rate                 : 2 336 Kbps\n\nVideo\nID                               : 0\nFormat                           : MPEG-4 Visual\nFormat profile                   : Advanced Simple@L5\nFormat settings, BVOP            : Yes\nFormat settings, QPel            : No\nFormat settings, GMC             : No warppoints\nFormat settings, Matrix          : Default (H.263)\nMuxing mode                      : Packed bitstream\nCodec ID                         : DX50\nCodec ID/Hint                    : DivX 5\nDuration                         : 1h 29mn\nBit rate                         : 1 879 Kbps\nWidth                            : 720 pixels\nHeight                           : 320 pixels\nDisplay aspect ratio             : 2.25:1\nFrame rate                       : 25.000 fps\nColor space                      : YUV\nChroma subsampling               : 4:2:0\nBit depth                        : 8 bits\nScan type                        : Progressive\nBits/(Pixel*Frame)               : 0.326\nStream size                      : 1.17 GiB (80%)\nTitle                            : Video \nWriting library                  : XviD 62\n\nAudio\nID                               : 1\nFormat                           : AC-3\nFormat/Info                      : Audio Coding 3\nMode extension                   : CM (complete main)\nCodec ID                         : 2000\nDuration                         : 1h 29mn\nBit rate mode                    : Constant\nBit rate                         : 448 Kbps\nChannel(s)                       : 6 channels\nChannel positions                : Front: L C R, Side: L R, LFE\nSampling rate                    : 48.0 KHz\nBit depth                        : 16 bits\nStream size                      : 286 MiB (19%)\nAlignment                        : Split accross interleaves\nInterleave, duration             : 40 ms (1.00 video frame)\nInterleave, preload duration     : 500 ms\nTitle                            : Audio \n\n ","torrent":{"xt":"urn:btih:33db9fe95c688ea4ffe7cfee9be4321c8e8e521c","amp;dn":"Animals+United+%282010%29+PAL+HQ+Ac3+DD5.1+%28ENG+NL+SUBS%29+TBS","amp;tr":["udp%3A%2F%2Ftracker.openbittorrent.com%3A80","udp%3A%2F%2Fopen.demonii.com%3A1337","udp%3A%2F%2Ftracker.coppersurfer.tk%3A6969","udp%3A%2F%2Fexodus.desync.com%3A6969"],"infoHash":"33db9fe95c688ea4ffe7cfee9be4321c8e8e521c","infoHashBuffer":{"type":"Buffer","data":[51,219,159,233,92,104,142,164,255,231,207,238,155,228,50,28,142,142,82,28]},"announce":[],"urlList":[]}}